<svg width="32" height="32" viewBox="0 0 32 32" fill="none" xmlns="http://www.w3.org/2000/svg">
<circle cx="16" cy="16" r="15.5" stroke="black"/>
<path d="M18.667 13.3333C19.7279 13.3333 20.7453 13.7548 21.4954 14.5049C22.2456 15.2551 22.667 16.2725 22.667 17.3333V22H20.0003V17.3333C20.0003 16.9797 19.8598 16.6406 19.6098 16.3905C19.3598 16.1405 19.0206 16 18.667 16C18.3134 16 17.9742 16.1405 17.7242 16.3905C17.4741 16.6406 17.3337 16.9797 17.3337 17.3333V22H14.667V17.3333C14.667 16.2725 15.0884 15.2551 15.8386 14.5049C16.5887 13.7548 17.6061 13.3333 18.667 13.3333Z" fill="black" stroke="black" stroke-linecap="round" stroke-linejoin="round"/>
<path d="M11.9997 14H9.33301V22H11.9997V14Z" fill="black" stroke="black" stroke-linecap="round" stroke-linejoin="round"/>
<path d="M10.6663 12C11.4027 12 11.9997 11.403 11.9997 10.6667C11.9997 9.93029 11.4027 9.33333 10.6663 9.33333C9.92996 9.33333 9.33301 9.93029 9.33301 10.6667C9.33301 11.403 9.92996 12 10.6663 12Z" fill="black" stroke="black" stroke-linecap="round" stroke-linejoin="round"/>
</svg>
