<svg width="32" height="32" viewBox="0 0 32 32" fill="none" xmlns="http://www.w3.org/2000/svg">
<circle cx="16" cy="16" r="15.5" stroke="black"/>
<path d="M23.3337 10C22.6952 10.4503 21.9884 10.7947 21.2403 11.02C20.8388 10.5583 20.3052 10.2311 19.7117 10.0826C19.1181 9.93411 18.4933 9.97146 17.9217 10.1896C17.3501 10.4078 16.8593 10.7963 16.5156 11.3025C16.172 11.8087 15.9921 12.4082 16.0003 13.02V13.6867C14.8287 13.717 13.6678 13.4572 12.621 12.9303C11.5742 12.4034 10.6739 11.6258 10.0003 10.6667C10.0003 10.6667 7.33366 16.6667 13.3337 19.3333C11.9607 20.2653 10.3251 20.7326 8.66699 20.6667C14.667 24 22.0003 20.6667 22.0003 13C21.9997 12.8143 21.9819 12.6291 21.947 12.4467C22.6274 11.7757 23.1075 10.9285 23.3337 10Z" fill="black" stroke="black" stroke-linecap="round" stroke-linejoin="round"/>
</svg>
