<svg xmlns="http://www.w3.org/2000/svg" width="31.654" height="58.564" viewBox="0 0 31.654 58.564">
  <g id="java" transform="translate(-49.132 -8.504)">
    <path id="Path_103" data-name="Path 103" d="M74,92.75s-1.471.856,1.048,1.145a22.04,22.04,0,0,0,7.977-.338,13.885,13.885,0,0,0,2.122,1.034C77.6,97.823,68.073,94.4,74,92.75Zm-.922-4.218s-1.651,1.222.871,1.483a31.127,31.127,0,0,0,10.294-.493,4.556,4.556,0,0,0,1.584.966C76.706,93.154,66.551,90.7,73.074,88.532Z" transform="translate(-14.219 -53.195)" fill="#3174b9"/>
    <path id="Path_104" data-name="Path 104" d="M98.169,43.68c1.859,2.14-.487,4.065-.487,4.065s4.719-2.436,2.552-5.487c-2.024-2.844-3.576-4.257,4.826-9.129C105.059,33.129,91.87,36.422,98.169,43.68Z" transform="translate(-31.186 -16.755)" fill="#ca3132"/>
    <path id="Path_105" data-name="Path 105" d="M79.045,85.774s1.145.9-1.261,1.593c-4.576,1.318-19.048,1.716-23.068.052-1.444-.6,1.265-1.428,2.118-1.6a5.817,5.817,0,0,1,1.4-.15c-1.607-1.076-10.387,2.114-4.459,3.029C69.935,91.189,83.237,87.574,79.045,85.774ZM62.1,74.066S54.744,75.73,59.5,76.334a58.137,58.137,0,0,0,9.737-.1c3.047-.243,6.1-.764,6.1-.764a13.271,13.271,0,0,0-1.851.943c-7.476,1.871-21.915,1-17.758-.913A14.524,14.524,0,0,1,62.1,74.066Zm13.205,7.02c7.6-3.755,4.085-7.365,1.633-6.878a6,6,0,0,0-.869.222,1.37,1.37,0,0,1,.649-.476c4.852-1.622,8.582,4.785-1.564,7.322A.646.646,0,0,0,75.309,81.087Z" transform="translate(-1.775 -43.118)" fill="#3174b9"/>
    <path id="Path_106" data-name="Path 106" d="M89.3,8.5s4,4-3.8,10.161c-6.255,4.94-1.426,7.756,0,10.975-3.652-3.294-6.33-6.194-4.533-8.893C83.6,16.786,90.911,14.865,89.3,8.5Z" transform="translate(-20.551 0)" fill="#ca3132"/>
    <path id="Path_107" data-name="Path 107" d="M73.216,121.16c6.937.444,17.592-.246,17.845-3.53,0,0-.485,1.244-5.734,2.232a57.014,57.014,0,0,1-17.558.27S68.657,120.866,73.216,121.16Z" transform="translate(-11.225 -72.659)" fill="#3174b9"/>
    <path id="Path_108" data-name="Path 108" d="M79.453,140.143h-.221v-.118h.6v.118h-.221v.591h-.154Zm1.191.029h0l-.22.561h-.1l-.218-.561h0v.561h-.147v-.709h.215l.2.5.2-.5h.213v.709h-.142v-.561h0ZM59.893,146.8a3.381,3.381,0,0,1-2.062.886A1.285,1.285,0,0,1,56.4,146.3c0-.921.539-1.594,2.695-1.594h.8v2.09Zm1.893,2.037v-6.306c0-1.612-.963-2.675-3.286-2.675a9.022,9.022,0,0,0-3.509.726l.278,1.117a8.493,8.493,0,0,1,2.71-.514c1.338,0,1.914.514,1.914,1.577v.8h-.669c-3.25,0-4.717,1.2-4.717,3.012,0,1.558.966,2.444,2.786,2.444a4.307,4.307,0,0,0,2.859-1.135l.148.957Zm6.317,0h-2.36L62.9,140.014h2.062l1.764,5.421.393,1.629a32.74,32.74,0,0,0,1.837-7.049h2A34.584,34.584,0,0,1,68.1,148.836ZM77.16,146.8a3.391,3.391,0,0,1-2.062.886,1.284,1.284,0,0,1-1.43-1.382c0-.921.539-1.594,2.694-1.594h.8Zm1.893,2.037v-6.306c0-1.612-.966-2.675-3.287-2.675a9.022,9.022,0,0,0-3.51.726l.278,1.117a8.506,8.506,0,0,1,2.712-.514c1.336,0,1.912.514,1.912,1.577v.8h-.669c-3.25,0-4.716,1.2-4.716,3.012,0,1.558.964,2.444,2.784,2.444a4.313,4.313,0,0,0,2.861-1.135l.149.957Zm-26.621,1.5a4.955,4.955,0,0,1-2.365,1.683l-.935-1.05a3.856,3.856,0,0,0,1.639-1.464,5.433,5.433,0,0,0,.354-2.554V136.877h2.012v9.933C53.136,148.77,52.972,149.563,52.432,150.334Z" transform="translate(0 -84.95)" fill="#ca3132"/>
  </g>
</svg>
