<svg xmlns="http://www.w3.org/2000/svg" width="57.385" height="54.053" viewBox="0 0 57.385 54.053">
  <g id="Load_Runner-01" data-name="Load Runner-01" transform="translate(-99.057 -108.11)">
    <path id="Path_436" data-name="Path 436" d="M400.554,289.125H400.5a.3.3,0,0,1-.093-.236c-.013-.355-.013-.71,0-1.067a.289.289,0,0,1,.1-.232.142.142,0,0,1,.049,0Z" transform="translate(-244.112 -145.394)" fill="#bde6e1"/>
    <path id="Path_437" data-name="Path 437" d="M184.159,146.524c-.805-1.379-1.591-2.716-2.37-4.058-1.037-1.791-2.062-3.589-3.109-5.376a.7.7,0,0,1,0-.79q2.7-4.66,5.39-9.338a6,6,0,0,0,.993-3.641,5.468,5.468,0,0,0-3.246-4.584,6.37,6.37,0,0,0-2.636-.6,24.381,24.381,0,0,0-4.387.175,5.463,5.463,0,0,0-4.138,7.973c-.1.087-.209.046-.31.046q-4.783,0-9.568.01c-.273,0-.332-.1-.38-.334a14.917,14.917,0,0,1,2.357-10.874,13.993,13.993,0,0,1,9.306-6.377,28.22,28.22,0,0,1,6.315-.64,17.868,17.868,0,0,1,9.82,2.849,14.83,14.83,0,0,1,5.828,7.576,15.121,15.121,0,0,1,.87,6.539,17.04,17.04,0,0,1-1.943,6.341c-1.436,2.758-3.128,5.365-4.664,8.064-1.177,2.072-2.385,4.127-3.584,6.185C184.546,145.95,184.357,146.22,184.159,146.524Z" transform="translate(-49.509)" fill="#00a5e7"/>
    <path id="Path_438" data-name="Path 438" d="M232.575,230.628v1.534a16.672,16.672,0,0,1-1.139,5.031,26.564,26.564,0,0,1-3.513,6.6,16.653,16.653,0,0,1-7.5,5.758,14.006,14.006,0,0,1-4.284.881,15.762,15.762,0,0,1-8.723-2.034,16.084,16.084,0,0,1-5.507-5.338c-1.438-2.2-2.617-4.49-3.91-6.742l-4.469-7.786c-.158-.277-.292-.57-.439-.853a.353.353,0,0,1,.272-.046q5.3,0,10.593-.017a.76.76,0,0,1,.744.448q2.74,4.763,5.5,9.518a5.547,5.547,0,0,0,2.372,2.374,5.476,5.476,0,0,0,6.005-.65,7.759,7.759,0,0,0,1.9-2.294,20.34,20.34,0,0,0,1.926-3.971,5.263,5.263,0,0,0-1.751-5.714,5.376,5.376,0,0,0-3.333-1.259l.931-1.616,4.034-6.979c.078-.135.125-.268.349-.179a14.316,14.316,0,0,1,5.088,3.115,16.208,16.208,0,0,1,4.672,8.5A10.83,10.83,0,0,1,232.575,230.628Z" transform="translate(-76.175 -88.427)" fill="#5dc2b6"/>
    <path id="Path_439" data-name="Path 439" d="M121.223,233.281c.676,1.139,1.329,2.243,1.979,3.344,1.02,1.723,2.036,3.449,3.063,5.168.135.222.108.332-.089.494a14.225,14.225,0,0,1-6.337,3.139,15.547,15.547,0,0,1-9.83-.95,14.876,14.876,0,0,1-4.938-3.8,26.306,26.306,0,0,1-4.772-7.507,16.765,16.765,0,0,1-1.2-7.545,14.766,14.766,0,0,1,3.456-8.4,15.154,15.154,0,0,1,9.359-5.456,23.843,23.843,0,0,1,4.032-.313c2.211-.015,4.421,0,6.632-.019q3.591-.019,7.186-.063a13.952,13.952,0,0,1,1.931.038c.032.078-.027.129-.057.19q-2.6,4.626-5.185,9.253a.83.83,0,0,1-.82.471c-2.835.021-5.671.044-8.506.093-.9.015-1.8-.017-2.7.03a5.438,5.438,0,0,0-3.662,1.421A5.568,5.568,0,0,0,109,227.24a7.449,7.449,0,0,0,1.139,3.437,20.735,20.735,0,0,0,2.478,3.584,5.446,5.446,0,0,0,8.6-.98Z" transform="translate(0 -83.641)" fill="#fccc0b"/>
  </g>
</svg>
