<svg xmlns="http://www.w3.org/2000/svg" width="140.959" height="24.697" viewBox="0 0 140.959 24.697">
  <g id="soasta" transform="translate(0 0.002)">
    <path id="Path_496" data-name="Path 496" d="M138.487,24.695a1.543,1.543,0,0,1-1.547-1.125L135.283,19.2l-.039-.1H127.38c-1.324,0-1.324-2.507.144-2.507h4.509c1.3,0,1.971-.745,1.64-1.683l-4.3-11.43H129.3l-9.11,21.216a1.352,1.352,0,0,1-1.512-1.263,6.118,6.118,0,0,1,.431-1.5l7.961-20.09a2.317,2.317,0,0,1,4.535,0l7.959,20.09a6.119,6.119,0,0,1,.433,1.5A1.353,1.353,0,0,1,138.487,24.695ZM116.731,2.81H111.1V23.092a1.585,1.585,0,1,1-3.17,0V2.81H102.3c-.9,0-1.55-.341-1.55-1.3S101.4.2,102.3.2H116.73c.9,0,1.548.355,1.548,1.31S117.632,2.81,116.731,2.81ZM87.9,24.695c-6.105,0-10.454-2.584-11.639-6.681,0,0,.78-2.437,3.47-.578.738,2.65,3.909,5.225,8.213,5.225,3.514,0,6.543-1.853,6.543-4.373,0-6.559-16.647-3.826-16.647-11.752C77.845,2.649,82.238.1,87.685.1c5.4,0,8.872,2.763,10.144,6.164,0,0-.53,2.411-3.247.7-1.144-2.641-2.725-4.827-7.116-4.827-3.119,0-6.019,1.732-6.019,4.038,0,5.89,16.648,3.584,16.648,11.844,0,4.128-4.436,6.68-10.189,6.68Zm-16.724,0a1.545,1.545,0,0,1-1.546-1.125L67.978,19.2l-.039-.1H60.076c-1.325,0-1.325-2.507.143-2.507h4.509c1.319,0,1.988-.762,1.624-1.72L62.072,3.479H62L52.887,24.695a1.351,1.351,0,0,1-1.511-1.263,6.164,6.164,0,0,1,.431-1.5l7.961-20.09a2.317,2.317,0,0,1,4.536,0l7.96,20.09a6.119,6.119,0,0,1,.433,1.5,1.354,1.354,0,0,1-1.516,1.263Zm-34.192,0a10.484,10.484,0,0,1-2.536-.269,1.755,1.755,0,0,1-1.223-2.1A1.694,1.694,0,0,1,35.1,21.114a5.832,5.832,0,0,0,1.889.247c5.265,0,8.665-3.525,8.983-7.8.054-.716.323-1.176,1.178-1.221.749-.038,1.094.567,1.01,1.415-.567,5.772-4.406,10.943-11.172,10.943Z" transform="translate(0.958 0)" fill="#1e4281"/>
    <path id="Path_497" data-name="Path 497" d="M44.691,9.639c-.975-3.744-3.277-7.159-7.508-7.159A11.08,11.08,0,0,0,33,3.208a1.144,1.144,0,0,1-.938-2.085A10.686,10.686,0,0,1,37.059,0c5.951,0,9.609,3.964,10.8,8.778A1.6,1.6,0,0,1,46.617,10.8a1.708,1.708,0,0,1-1.925-1.159Z" transform="translate(0.908 0)" fill="#28b5ea"/>
    <path id="Path_498" data-name="Path 498" d="M31.662,21.944c-.306.444-1.048.609-1.847-.171a13.012,13.012,0,0,1-3.835-9.535A14.094,14.094,0,0,1,27.608,5.56c.124-.193.457-.8.7-1.131a1.6,1.6,0,0,1,2.42-.279,1.666,1.666,0,0,1,.323,2.169,11.1,11.1,0,0,0-2.106,5.91,12.018,12.018,0,0,0,2.493,7.955A1.19,1.19,0,0,1,31.662,21.944Z" transform="translate(0.751 0.107)" fill="#c5c5c5"/>
    <path id="Path_499" data-name="Path 499" d="M11.641,24.692C5.535,24.692,1.187,22.108,0,18.011c0,0,.781-2.437,3.472-.578.738,2.65,3.909,5.225,8.214,5.225,3.514,0,6.543-1.853,6.543-4.373,0-6.559-16.647-3.826-16.647-11.752C1.581,2.647,5.974.1,11.422.1c5.4,0,8.87,2.763,10.144,6.164,0,0-.531,2.411-3.249.7C17.174,4.316,15.592,2.13,11.2,2.13c-3.119,0-6.018,1.732-6.018,4.038,0,5.89,16.648,3.584,16.648,11.844,0,4.128-4.438,6.68-10.19,6.68Z" transform="translate(0 0.003)" fill="#1e4281"/>
  </g>
</svg>
